TITLE ""
FILE "1Q_t_1549-1557.mp3" MP3
  TRACK 01 AUDIO
    TITLE "1Q_t_1549-1557_01"
    INDEX 01 00:00:00
  TRACK 02 AUDIO
    TITLE "1Q_t_1549-1557_02"
    INDEX 01 00:01:18
  TRACK 03 AUDIO
    TITLE "1Q_t_1549-1557_03"
    INDEX 01 00:01:25
  TRACK 04 AUDIO
    TITLE "1Q_t_1549-1557_04"
    INDEX 01 00:03:13
  TRACK 05 AUDIO
    TITLE "1Q_t_1549-1557_05"
    INDEX 01 00:03:18
  TRACK 06 AUDIO
    TITLE "1Q_t_1549-1557_06"
    INDEX 01 00:08:74
  TRACK 07 AUDIO
    TITLE "1Q_t_1549-1557_07"
    INDEX 01 00:09:43
  TRACK 08 AUDIO
    TITLE "1Q_t_1549-1557_08"
    INDEX 01 00:10:42
  TRACK 09 AUDIO
    TITLE "1Q_t_1549-1557_09"
    INDEX 01 00:10:50
  TRACK 10 AUDIO
    TITLE "1Q_t_1549-1557_10"
    INDEX 01 00:13:42
  TRACK 11 AUDIO
    TITLE "1Q_t_1549-1557_11"
    INDEX 01 00:13:50
  TRACK 12 AUDIO
    TITLE "1Q_t_1549-1557_12"
    INDEX 01 00:16:72
  TRACK 13 AUDIO
    TITLE "1Q_t_1549-1557_13"
    INDEX 01 00:17:44
  TRACK 14 AUDIO
    TITLE "1Q_t_1549-1557_14"
    INDEX 01 00:18:51
  TRACK 15 AUDIO
    TITLE "1Q_t_1549-1557_15"
    INDEX 01 00:18:59
  TRACK 16 AUDIO
    TITLE "1Q_t_1549-1557_16"
    INDEX 01 00:19:72
  TRACK 17 AUDIO
    TITLE "1Q_t_1549-1557_17"
    INDEX 01 00:20:03
  TRACK 18 AUDIO
    TITLE "1Q_t_1549-1557_18"
    INDEX 01 00:25:04
  TRACK 19 AUDIO
    TITLE "1Q_t_1549-1557_19"
    INDEX 01 00:25:47
  TRACK 20 AUDIO
    TITLE "1Q_t_1549-1557_20"
    INDEX 01 00:26:47
  TRACK 21 AUDIO
    TITLE "1Q_t_1549-1557_21"
    INDEX 01 00:26:55
  TRACK 22 AUDIO
    TITLE "1Q_t_1549-1557_22"
    INDEX 01 00:28:22
  TRACK 23 AUDIO
    TITLE "1Q_t_1549-1557_23"
    INDEX 01 00:28:28
  TRACK 24 AUDIO
    TITLE "1Q_t_1549-1557_24"
    INDEX 01 00:33:61
  TRACK 25 AUDIO
    TITLE "1Q_t_1549-1557_25"
    INDEX 01 00:34:33
  TRACK 26 AUDIO
    TITLE "1Q_t_1549-1557_26"
    INDEX 01 00:35:40
  TRACK 27 AUDIO
    TITLE "1Q_t_1549-1557_27"
    INDEX 01 00:35:48
  TRACK 28 AUDIO
    TITLE "1Q_t_1549-1557_28"
    INDEX 01 00:36:47
  TRACK 29 AUDIO
    TITLE "1Q_t_1549-1557_29"
    INDEX 01 00:36:53
  TRACK 30 AUDIO
    TITLE "1Q_t_1549-1557_30"
    INDEX 01 00:42:05
  TRACK 31 AUDIO
    TITLE "1Q_t_1549-1557_31"
    INDEX 01 00:42:50
  TRACK 32 AUDIO
    TITLE "1Q_t_1549-1557_32"
    INDEX 01 00:44:04
  TRACK 33 AUDIO
    TITLE "1Q_t_1549-1557_33"
    INDEX 01 00:44:12
  TRACK 34 AUDIO
    TITLE "1Q_t_1549-1557_34"
    INDEX 01 00:46:34
  TRACK 35 AUDIO
    TITLE "1Q_t_1549-1557_35"
    INDEX 01 00:46:40
  TRACK 36 AUDIO
    TITLE "1Q_t_1549-1557_36"
    INDEX 01 00:51:72
  TRACK 37 AUDIO
    TITLE "1Q_t_1549-1557_37"
    INDEX 01 00:52:46
  TRACK 38 AUDIO
    TITLE "1Q_t_1549-1557_38"
    INDEX 01 00:53:67
  TRACK 39 AUDIO
    TITLE "1Q_t_1549-1557_39"
    INDEX 01 00:54:02
  TRACK 40 AUDIO
    TITLE "1Q_t_1549-1557_40"
    INDEX 01 00:55:56
  TRACK 41 AUDIO
    TITLE "1Q_t_1549-1557_41"
    INDEX 01 00:55:62
  TRACK 42 AUDIO
    TITLE "1Q_t_1549-1557_42"
    INDEX 01 00:59:64
  TRACK 43 AUDIO
    TITLE "1Q_t_1549-1557_43"
    INDEX 01 01:00:34
  TRACK 44 AUDIO
    TITLE "1Q_t_1549-1557_44"
    INDEX 01 01:01:35
  TRACK 45 AUDIO
    TITLE "1Q_t_1549-1557_45"
    INDEX 01 01:01:43
  TRACK 46 AUDIO
    TITLE "1Q_t_1549-1557_46"
    INDEX 01 01:02:37
  TRACK 47 AUDIO
    TITLE "1Q_t_1549-1557_47"
    INDEX 01 01:02:43
  TRACK 48 AUDIO
    TITLE "1Q_t_1549-1557_48"
    INDEX 01 01:05:59
  TRACK 49 AUDIO
    TITLE "1Q_t_1549-1557_49"
    INDEX 01 01:06:27
  TRACK 50 AUDIO
    TITLE "1Q_t_1549-1557_50"
    INDEX 01 01:07:52
  TRACK 51 AUDIO
    TITLE "1Q_t_1549-1557_51"
    INDEX 01 01:07:58
  TRACK 52 AUDIO
    TITLE "1Q_t_1549-1557_52"
    INDEX 01 01:09:10
  TRACK 53 AUDIO
    TITLE "1Q_t_1549-1557_53"
    INDEX 01 01:09:13
  TRACK 54 AUDIO
    TITLE "1Q_t_1549-1557_54"
    INDEX 01 01:13:19
